<svg width="64" height="64" viewBox="0 0 64 64" fill="none" xmlns="http://www.w3.org/2000/svg">
<rect width="64" height="64" rx="32" fill="#333333"/>
<path d="M43.7963 34.8072L37.9075 32.1685L37.8913 32.161C37.5856 32.0302 37.2521 31.9778 36.921 32.0083C36.5899 32.0389 36.2716 32.1515 35.995 32.336C35.9624 32.3575 35.9311 32.3809 35.9013 32.406L32.8588 34.9997C30.9313 34.0635 28.9413 32.0885 28.005 30.186L30.6025 27.0972C30.6275 27.066 30.6513 27.0347 30.6738 27.001C30.8543 26.7251 30.9638 26.4089 30.9926 26.0805C31.0214 25.752 30.9686 25.4216 30.8388 25.1185V25.1035L28.1925 19.2047C28.0209 18.8088 27.7259 18.479 27.3515 18.2645C26.9771 18.0501 26.5433 17.9624 26.115 18.0147C24.4212 18.2376 22.8665 19.0695 21.7412 20.3549C20.6159 21.6403 19.9969 23.2914 20 24.9997C20 34.9247 28.075 42.9997 38 42.9997C39.7084 43.0028 41.3595 42.3839 42.6449 41.2586C43.9303 40.1333 44.7621 38.5785 44.985 36.8847C45.0374 36.4566 44.95 36.0229 44.7357 35.6485C44.5215 35.2741 44.1919 34.979 43.7963 34.8072ZM38 40.9997C33.758 40.9951 29.691 39.3079 26.6914 36.3083C23.6918 33.3088 22.0046 29.2418 22 24.9997C21.9953 23.7791 22.4351 22.5985 23.2372 21.6784C24.0393 20.7583 25.1489 20.1616 26.3588 19.9997C26.3583 20.0047 26.3583 20.0098 26.3588 20.0147L28.9838 25.8897L26.4 28.9822C26.3738 29.0124 26.35 29.0446 26.3288 29.0785C26.1407 29.3671 26.0303 29.6995 26.0084 30.0433C25.9865 30.3872 26.0538 30.7308 26.2038 31.041C27.3363 33.3572 29.67 35.6735 32.0113 36.8047C32.3237 36.9533 32.6694 37.0183 33.0144 36.9933C33.3595 36.9683 33.6922 36.8543 33.98 36.6622C34.0121 36.6406 34.043 36.6173 34.0725 36.5922L37.1113 33.9997L42.9863 36.631C42.9863 36.631 42.9963 36.631 43 36.631C42.8402 37.8426 42.2444 38.9544 41.3241 39.7585C40.4038 40.5626 39.2221 41.0039 38 40.9997Z" fill="#FAF3E0"/>
</svg>
