<svg width="64" height="65" viewBox="0 0 64 65" fill="none" xmlns="http://www.w3.org/2000/svg">
<rect y="0.5" width="64" height="64" rx="32" fill="#333333"/>
<path d="M32 24C31.0111 24 30.0444 24.2932 29.2221 24.8427C28.3999 25.3921 27.759 26.173 27.3806 27.0866C27.0022 28.0002 26.9031 29.0055 27.0961 29.9755C27.289 30.9454 27.7652 31.8363 28.4645 32.5355C29.1637 33.2348 30.0546 33.711 31.0245 33.9039C31.9945 34.0969 32.9998 33.9978 33.9134 33.6194C34.827 33.241 35.6079 32.6001 36.1573 31.7779C36.7068 30.9556 37 29.9889 37 29C37 27.6739 36.4732 26.4021 35.5355 25.4645C34.5979 24.5268 33.3261 24 32 24ZM32 32C31.4067 32 30.8266 31.8241 30.3333 31.4944C29.8399 31.1648 29.4554 30.6962 29.2284 30.1481C29.0013 29.5999 28.9419 28.9967 29.0576 28.4147C29.1734 27.8328 29.4591 27.2982 29.8787 26.8787C30.2982 26.4591 30.8328 26.1734 31.4147 26.0576C31.9967 25.9419 32.5999 26.0013 33.1481 26.2284C33.6962 26.4554 34.1648 26.8399 34.4944 27.3333C34.8241 27.8266 35 28.4067 35 29C35 29.7956 34.6839 30.5587 34.1213 31.1213C33.5587 31.6839 32.7956 32 32 32ZM32 18C29.0836 18.0033 26.2877 19.1633 24.2255 21.2255C22.1633 23.2877 21.0033 26.0836 21 29C21 32.925 22.8138 37.085 26.25 41.0312C27.794 42.8145 29.5318 44.4202 31.4312 45.8188C31.5994 45.9365 31.7997 45.9997 32.005 45.9997C32.2103 45.9997 32.4106 45.9365 32.5788 45.8188C34.4747 44.4196 36.2091 42.8139 37.75 41.0312C41.1812 37.085 43 32.925 43 29C42.9967 26.0836 41.8367 23.2877 39.7745 21.2255C37.7123 19.1633 34.9164 18.0033 32 18ZM32 43.75C29.9338 42.125 23 36.1562 23 29C23 26.6131 23.9482 24.3239 25.636 22.636C27.3239 20.9482 29.6131 20 32 20C34.3869 20 36.6761 20.9482 38.364 22.636C40.0518 24.3239 41 26.6131 41 29C41 36.1537 34.0662 42.125 32 43.75Z" fill="#FAF3E0"/>
</svg>
