<svg width="64" height="64" viewBox="0 0 64 64" fill="none" xmlns="http://www.w3.org/2000/svg">
<rect width="64" height="64" rx="32" fill="#333333"/>
<path d="M44 22H20C19.7348 22 19.4804 22.1054 19.2929 22.2929C19.1054 22.4804 19 22.7348 19 23V40C19 40.5304 19.2107 41.0391 19.5858 41.4142C19.9609 41.7893 20.4696 42 21 42H43C43.5304 42 44.0391 41.7893 44.4142 41.4142C44.7893 41.0391 45 40.5304 45 40V23C45 22.7348 44.8946 22.4804 44.7071 22.2929C44.5196 22.1054 44.2652 22 44 22ZM32 32.6437L22.5712 24H41.4287L32 32.6437ZM28.3387 32L21 38.7262V25.2738L28.3387 32ZM29.8188 33.3563L31.3188 34.7375C31.5032 34.9069 31.7446 35.0008 31.995 35.0008C32.2454 35.0008 32.4868 34.9069 32.6712 34.7375L34.1712 33.3563L41.4212 40H22.5712L29.8188 33.3563ZM35.6612 32L43 25.2725V38.7275L35.6612 32Z" fill="#FAF3E0"/>
</svg>
