<svg width="26" height="26" viewBox="0 0 26 26" fill="none" xmlns="http://www.w3.org/2000/svg">
<path d="M13 0.25C5.9705 0.25 0.25 5.9705 0.25 13C0.25 20.0295 5.9705 25.75 13 25.75C20.0295 25.75 25.75 20.0295 25.75 13C25.75 5.9705 20.0295 0.25 13 0.25ZM13 2.375C18.8809 2.375 23.625 7.11906 23.625 13C23.6269 15.5434 22.7146 18.0028 21.0544 19.9296C19.3942 21.8564 17.0967 23.1223 14.581 23.4964V16.0983H17.607L18.0819 13.0244H14.581V11.3457C14.581 10.0707 15.0007 8.937 16.1939 8.937H18.1117V6.25525C17.7749 6.20956 17.0619 6.11075 15.7147 6.11075C12.9012 6.11075 11.2522 7.59613 11.2522 10.9813V13.0244H8.36006V16.0983H11.2522V23.4699C8.77098 23.0615 6.51581 21.7842 4.88961 19.8662C3.26341 17.9483 2.37212 15.5146 2.375 13C2.375 7.11906 7.11906 2.375 13 2.375Z" fill="#333333"/>
</svg>
