<svg width="34" height="34" viewBox="0 0 34 34" fill="none" xmlns="http://www.w3.org/2000/svg">
<path d="M11.0502 2.83325H22.9502C27.4835 2.83325 31.1668 6.51659 31.1668 11.0499V22.9499C31.1668 25.1291 30.3011 27.2191 28.7602 28.76C27.2193 30.3009 25.1294 31.1666 22.9502 31.1666H11.0502C6.51683 31.1666 2.8335 27.4833 2.8335 22.9499V11.0499C2.8335 8.87072 3.69918 6.78078 5.2401 5.23986C6.78103 3.69893 8.87097 2.83325 11.0502 2.83325ZM10.7668 5.66659C9.41423 5.66659 8.11702 6.20391 7.16059 7.16034C6.20415 8.11678 5.66683 9.41398 5.66683 10.7666V23.2333C5.66683 26.0524 7.94766 28.3333 10.7668 28.3333H23.2335C24.5861 28.3333 25.8833 27.7959 26.8397 26.8395C27.7962 25.8831 28.3335 24.5859 28.3335 23.2333V10.7666C28.3335 7.94742 26.0527 5.66659 23.2335 5.66659H10.7668ZM24.4377 7.79159C24.9073 7.79159 25.3577 7.97816 25.6898 8.31025C26.0219 8.64235 26.2085 9.09276 26.2085 9.56242C26.2085 10.0321 26.0219 10.4825 25.6898 10.8146C25.3577 11.1467 24.9073 11.3333 24.4377 11.3333C23.968 11.3333 23.5176 11.1467 23.1855 10.8146C22.8534 10.4825 22.6668 10.0321 22.6668 9.56242C22.6668 9.09276 22.8534 8.64235 23.1855 8.31025C23.5176 7.97816 23.968 7.79159 24.4377 7.79159ZM17.0002 9.91659C18.8788 9.91659 20.6805 10.6629 22.0088 11.9912C23.3372 13.3196 24.0835 15.1213 24.0835 16.9999C24.0835 18.8785 23.3372 20.6802 22.0088 22.0086C20.6805 23.337 18.8788 24.0833 17.0002 24.0833C15.1215 24.0833 13.3199 23.337 11.9915 22.0086C10.6631 20.6802 9.91683 18.8785 9.91683 16.9999C9.91683 15.1213 10.6631 13.3196 11.9915 11.9912C13.3199 10.6629 15.1215 9.91659 17.0002 9.91659ZM17.0002 12.7499C15.873 12.7499 14.792 13.1977 13.995 13.9947C13.1979 14.7917 12.7502 15.8727 12.7502 16.9999C12.7502 18.1271 13.1979 19.2081 13.995 20.0051C14.792 20.8022 15.873 21.2499 17.0002 21.2499C18.1273 21.2499 19.2083 20.8022 20.0054 20.0051C20.8024 19.2081 21.2502 18.1271 21.2502 16.9999C21.2502 15.8727 20.8024 14.7917 20.0054 13.9947C19.2083 13.1977 18.1273 12.7499 17.0002 12.7499Z" fill="#333333"/>
</svg>
