<svg width="30" height="32" viewBox="0 0 30 32" fill="none" xmlns="http://www.w3.org/2000/svg">
<path fill-rule="evenodd" clip-rule="evenodd" d="M15.0002 0.833252C7.17591 0.833252 0.833496 7.17567 0.833496 14.9999C0.833496 22.8242 7.17591 29.1666 15.0002 29.1666C22.8244 29.1666 29.1668 22.8242 29.1668 14.9999C29.1668 7.17567 22.8244 0.833252 15.0002 0.833252ZM3.66683 14.9999C3.66729 12.6412 4.40367 10.3414 5.77333 8.42109C7.14299 6.50079 9.07767 5.05567 11.3077 4.28718C13.5377 3.5187 15.9519 3.46514 18.2138 4.13397C20.4757 4.80281 22.4726 6.16071 23.9261 8.01839C25.3795 9.87606 26.2172 12.1409 26.3222 14.4973C26.4273 16.8537 25.7945 19.1841 24.5122 21.1638C23.2298 23.1435 21.3617 24.6737 19.1683 25.5412C16.9749 26.4086 14.5655 26.5701 12.2759 26.0032L13.2931 21.2233C14.2663 22.0677 15.4747 22.3893 16.635 22.368C17.9072 22.3439 19.185 21.9147 20.2546 21.2418C21.3199 20.5717 22.2719 19.5984 22.7932 18.3985C23.3567 17.105 23.5894 15.6915 23.4702 14.2856C23.351 12.8797 22.8836 11.5256 22.1104 10.3454C21.3371 9.16523 20.2822 8.1961 19.0409 7.52543C17.7995 6.85476 16.4107 6.50366 14.9998 6.50379C13.5888 6.50392 12.2001 6.85527 10.9589 7.52616C9.71765 8.19706 8.66294 9.16638 7.8899 10.3467C7.11685 11.527 6.64979 12.8812 6.53083 14.2871C6.41187 15.6931 6.64476 17.1065 7.2085 18.3999C7.27904 18.576 7.38423 18.7362 7.51783 18.8708C7.65142 19.0055 7.81071 19.112 7.98624 19.1839C8.16177 19.2559 8.34996 19.2919 8.53965 19.2897C8.72934 19.2876 8.91667 19.2473 9.09052 19.1714C9.26437 19.0955 9.4212 18.9854 9.55171 18.8478C9.68222 18.7101 9.78375 18.5476 9.85028 18.37C9.9168 18.1923 9.94697 18.0031 9.939 17.8136C9.93102 17.624 9.88505 17.438 9.80383 17.2666C9.46803 16.4946 9.30845 15.6575 9.33669 14.8162C9.36492 13.9748 9.58026 13.1503 9.96706 12.4026C10.3539 11.6549 10.9024 11.0027 11.5728 10.4936C12.2432 9.9844 13.0186 9.63099 13.8427 9.45904C14.6668 9.28708 15.5188 9.3009 16.3369 9.49949C17.155 9.69807 17.9185 10.0764 18.5721 10.6071C19.2256 11.1377 19.7527 11.8073 20.1151 12.5672C20.4774 13.327 20.6659 14.1581 20.6668 14.9999C20.6668 16.5512 20.086 17.999 18.7444 18.8433C18.0531 19.2797 17.2725 19.5233 16.5826 19.5347C15.9068 19.5488 15.3897 19.3448 15.0313 18.9694C14.68 18.6011 14.2932 17.8899 14.2932 16.5583C14.2932 15.7083 14.6177 14.9999 15.0058 13.1696C15.0478 12.9864 15.053 12.7967 15.021 12.6115C14.9889 12.4263 14.9204 12.2494 14.8193 12.0909C14.7182 11.9325 14.5866 11.7958 14.4322 11.6887C14.2777 11.5816 14.1035 11.5063 13.9197 11.4672C13.7359 11.4282 13.5461 11.426 13.3615 11.461C13.1768 11.4959 13.001 11.5673 12.8442 11.6709C12.6874 11.7745 12.5527 11.9082 12.4481 12.0643C12.3435 12.2205 12.271 12.3958 12.2348 12.5803L9.59983 24.9662C7.80493 23.9934 6.30614 22.5538 5.26181 20.7995C4.21749 19.0453 3.66642 17.0415 3.66683 14.9999Z" fill="#333333"/>
</svg>
