<svg width="30" height="29" viewBox="0 0 30 29" fill="none" xmlns="http://www.w3.org/2000/svg">
<path d="M15.0002 0.666748C16.2114 0.666748 17.4538 0.697915 18.658 0.748915L20.0803 0.816915L21.4417 0.897665L22.7167 0.984081L23.8812 1.07475C25.1452 1.17093 26.3346 1.71003 27.2401 2.5971C28.1456 3.48417 28.709 4.66231 28.8311 5.924L28.8877 6.52608L28.994 7.81525C29.0932 9.15116 29.1668 10.6075 29.1668 12.0001C29.1668 13.3927 29.0932 14.849 28.994 16.1849L28.8877 17.4741L28.8311 18.0762C28.7089 19.3381 28.1453 20.5164 27.2396 21.4035C26.3338 22.2906 25.144 22.8296 23.8798 22.9254L22.7182 23.0147L21.4432 23.1025L20.0803 23.1832L18.658 23.2512C17.4394 23.304 16.2199 23.3314 15.0002 23.3334C13.7804 23.3314 12.5609 23.304 11.3423 23.2512L9.92 23.1832L8.55858 23.1025L7.28358 23.0147L6.11908 22.9254C4.85515 22.8292 3.6657 22.2901 2.76023 21.4031C1.85475 20.516 1.29135 19.3379 1.16925 18.0762L1.11258 17.4741L1.00633 16.1849C0.898426 14.7925 0.840777 13.3966 0.833496 12.0001C0.833496 10.6075 0.907163 9.15116 1.00633 7.81525L1.11258 6.52608L1.16925 5.924C1.2913 4.66253 1.8545 3.48457 2.75969 2.59753C3.66487 1.71049 4.85398 1.17125 6.11766 1.07475L7.28075 0.984081L8.55575 0.897665L9.91858 0.816915L11.3409 0.748915C12.56 0.696112 13.78 0.668717 15.0002 0.666748ZM15.0002 3.50008C13.8314 3.50008 12.6287 3.53125 11.4585 3.57941L10.073 3.646L8.74275 3.72391L7.49325 3.80891L6.34858 3.89816C5.74677 3.9403 5.17939 4.19443 4.74727 4.6154C4.31514 5.03637 4.04626 5.59691 3.98841 6.19741C3.82266 7.91016 3.66683 10.0422 3.66683 12.0001C3.66683 13.9579 3.82266 16.09 3.98841 17.8027C4.10883 19.0381 5.08916 19.9986 6.34858 20.102L7.49325 20.1898L8.74275 20.2748L10.073 20.3542L11.4585 20.4207C12.6287 20.4689 13.8314 20.5001 15.0002 20.5001C16.1689 20.5001 17.3717 20.4689 18.5418 20.4207L19.9273 20.3542L21.2576 20.2762L22.5071 20.1912L23.6517 20.102C24.2536 20.0599 24.8209 19.8057 25.2531 19.3848C25.6852 18.9638 25.9541 18.4032 26.0119 17.8027C26.1777 16.09 26.3335 13.9579 26.3335 12.0001C26.3335 10.0422 26.1777 7.91016 26.0119 6.19741C25.9541 5.59691 25.6852 5.03637 25.2531 4.6154C24.8209 4.19443 24.2536 3.9403 23.6517 3.89816L22.5071 3.81033L21.2576 3.72533L19.9273 3.646L18.5418 3.57941C17.3619 3.52877 16.1811 3.50232 15.0002 3.50008ZM12.1668 8.56466C12.1667 8.4262 12.2005 8.28982 12.2651 8.16737C12.3297 8.04491 12.4233 7.9401 12.5376 7.86205C12.652 7.78399 12.7837 7.73505 12.9213 7.71949C13.0589 7.70393 13.1982 7.72221 13.3271 7.77275L13.4418 7.82941L19.3918 11.2634C19.5103 11.3318 19.6105 11.4277 19.684 11.5431C19.7575 11.6585 19.802 11.7899 19.8138 11.9262C19.8257 12.0625 19.8044 12.1996 19.7519 12.3259C19.6994 12.4522 19.6172 12.564 19.5122 12.6517L19.3918 12.7367L13.4418 16.1722C13.3219 16.2416 13.1869 16.2807 13.0484 16.286C12.91 16.2913 12.7723 16.2627 12.6474 16.2026C12.5226 16.1425 12.4143 16.0529 12.332 15.9414C12.2497 15.8299 12.1959 15.7 12.1753 15.563L12.1668 15.4355V8.56466Z" fill="#333333"/>
</svg>
