<svg width="55" height="34" viewBox="0 0 55 34" fill="none" xmlns="http://www.w3.org/2000/svg">
<path d="M22.3333 10.5468C19.75 7.96345 12.0542 0.929031 8.53833 1.53611C-0.624755 3.1197 -0.624755 30.8905 8.53833 32.4741C12.0542 33.0812 19.75 26.0494 22.3333 23.4634M32.6667 10.5468C35.25 7.96345 42.9457 0.929031 46.4617 1.53611C55.6247 3.1197 55.6247 30.8905 46.4617 32.4741C42.9457 33.0812 35.25 26.0494 32.6667 23.4634" stroke="#E27D60" stroke-width="1.5" stroke-linecap="round" stroke-linejoin="round"/>
<path d="M19.7501 17.0051H17.1667M37.8334 17.0051H35.2501M21.0417 17.0051C21.0417 11.5827 22.6486 9.25513 27.5001 9.25513C32.0183 9.25513 33.9584 11.1823 33.9584 17.0051C33.9584 22.4275 32.3516 24.7551 27.5001 24.7551C22.6486 24.7551 21.0417 22.4275 21.0417 17.0051Z" stroke="#E27D60" stroke-width="1.5" stroke-linecap="round" stroke-linejoin="round"/>
</svg>
