<svg width="63" height="62" viewBox="0 0 63 62" fill="none" xmlns="http://www.w3.org/2000/svg">
<path d="M3.37866 51.7877V35.7563L17.4039 29.7467L31.4292 35.7607V51.7877L17.4039 57.7928L3.37866 51.7877Z" stroke="#E27D60" stroke-linecap="round" stroke-linejoin="round"/>
<path d="M3.37866 35.7253L17.4039 41.7349L31.4292 35.7253M17.4039 13.826L31.4248 19.84L45.4501 13.8305" stroke="#E27D60" stroke-linecap="round" stroke-linejoin="round"/>
<path d="M31.4248 35.7253L45.4501 41.7349L59.4754 35.7253" stroke="#E27D60" stroke-linecap="round" stroke-linejoin="round"/>
<path d="M17.4041 41.7438V57.7973M45.4591 41.7438V57.7973M31.4249 19.84V35.8892M17.4129 29.7379V13.7065L31.4338 7.6969L45.4591 13.7065V29.7379L31.4338 35.7475L17.4129 29.7379ZM31.4249 51.7878V35.7563L45.4502 29.7468L59.4755 35.7608V51.7878L45.4502 57.7929L31.4249 51.7878Z" stroke="#E27D60" stroke-linecap="round" stroke-linejoin="round"/>
</svg>
