<svg width="63" height="62" viewBox="0 0 63 62" fill="none" xmlns="http://www.w3.org/2000/svg">
<path d="M42.2919 53.7656C38.9206 55.3687 35.2331 56.1963 31.5001 56.1875C17.6121 56.1875 6.31255 44.888 6.31255 31C6.31255 25.0422 8.36049 19.4157 12.1251 14.9032V19.375H16.0001V7.75H4.37505V11.625H9.88143C5.07755 16.9332 2.42366 23.8408 2.43755 31C2.43755 47.0251 15.475 60.0625 31.5001 60.0625C35.8095 60.0715 40.0663 59.1155 43.9582 57.2647L42.2919 53.7656Z" fill="#E27D60"/>
<path d="M41.1875 17.4375C35.065 17.4375 30.0449 22.1979 29.6051 28.21C27.4751 26.2664 24.696 25.1885 21.8125 25.1875H14.0625V32.9375C14.0625 39.3487 19.2782 44.5625 25.6875 44.5625H29.5625V52.3125H33.4375V36.8125H37.3125C43.7218 36.8125 48.9375 31.5987 48.9375 25.1875V17.4375H41.1875ZM25.6875 40.6875C21.4134 40.6875 17.9375 37.2116 17.9375 32.9375V29.0625H21.8125C26.0866 29.0625 29.5625 32.5384 29.5625 36.8125V37.9479L25.1198 33.5052L22.3802 36.2448L26.8229 40.6875H25.6875ZM45.0625 25.1875C45.0625 29.4616 41.5866 32.9375 37.3125 32.9375H36.1771L40.6198 28.4948L37.8802 25.7552L33.4375 30.1979V29.0625C33.4375 24.7884 36.9134 21.3125 41.1875 21.3125H45.0625V25.1875Z" fill="#E27D60"/>
<path d="M60.5626 30.9999C60.5626 14.9749 47.5252 1.93744 31.5001 1.93744C27.1906 1.92847 22.9338 2.88443 19.042 4.73519L20.7082 8.23431C24.0795 6.63123 27.7671 5.80367 31.5001 5.81244C45.3881 5.81244 56.6876 17.1119 56.6876 30.9999C56.6876 36.9578 54.6397 42.5843 50.8751 47.0967V42.6249H47.0001V54.2499H58.6251V50.3749H53.1187C57.9226 45.0667 60.5765 38.1591 60.5626 30.9999Z" fill="#E27D60"/>
</svg>
