<svg width="59" height="62" viewBox="0 0 59 62" fill="none" xmlns="http://www.w3.org/2000/svg">
<path d="M53.2887 51.676L52.6513 49.7627C52.3868 48.9713 51.6467 48.4375 50.8126 48.4375H31.4376V45.5312H53.7188C54.7883 45.5312 55.6563 44.6632 55.6563 43.5938C55.6563 42.5243 54.7883 41.6562 53.7188 41.6562H52.7501V40.6875C52.7501 28.52 43.3542 18.5128 31.4376 17.5247V15.5H34.3438C35.4133 15.5 36.2813 14.632 36.2813 13.5625C36.2813 12.493 35.4133 11.625 34.3438 11.625H24.6563C23.5868 11.625 22.7188 12.493 22.7188 13.5625C22.7188 14.632 23.5868 15.5 24.6563 15.5H27.5626V17.5247C15.646 18.5128 6.25007 28.52 6.25007 40.6875V41.6562H5.28132C4.21182 41.6562 3.34382 42.5243 3.34382 43.5938C3.34382 44.6632 4.21182 45.5312 5.28132 45.5312H27.5626V48.4375H8.18757C7.35347 48.4375 6.61335 48.9713 6.34985 49.7627L5.71241 51.676C4.95679 53.9429 3.66447 56.0344 1.97497 57.7239C1.42085 58.2781 1.25519 59.1112 1.55454 59.8348C1.85388 60.5595 2.5601 61.0312 3.34382 61.0312H55.6563C56.44 61.0312 57.1463 60.5595 57.4466 59.8348C57.7469 59.1112 57.5812 58.2781 57.0261 57.7239C55.3366 56.0335 54.0434 53.9429 53.2887 51.676ZM10.1251 40.6875C10.1251 30.0041 18.8167 21.3125 29.5001 21.3125C40.1834 21.3125 48.8751 30.0041 48.8751 40.6875V41.6562H10.1251V40.6875ZM7.36122 57.1562C8.20597 55.8262 8.88991 54.3943 9.38785 52.9005L9.58354 52.3125H49.4156L49.6113 52.9005C50.1093 54.3943 50.7932 55.8262 51.6379 57.1562H7.36122ZM29.5001 8.71875C30.5696 8.71875 31.4376 7.85075 31.4376 6.78125V2.90625C31.4376 1.83675 30.5696 0.96875 29.5001 0.96875C28.4306 0.96875 27.5626 1.83675 27.5626 2.90625V6.78125C27.5626 7.85075 28.4306 8.71875 29.5001 8.71875ZM14.2607 11.3838C14.6201 12.0057 15.2701 12.3525 15.9405 12.3525C16.2689 12.3525 16.6021 12.2692 16.9073 12.0919C17.8344 11.5572 18.1512 10.3724 17.6164 9.44531L15.6789 6.08956C15.1432 5.16441 13.9584 4.84472 13.0313 5.38141C12.1042 5.91616 11.7874 7.10094 12.3222 8.02803L14.2607 11.3838ZM5.04107 22.0207C5.34622 22.1979 5.67947 22.2812 6.00788 22.2812C6.67729 22.2812 7.32926 21.9335 7.68769 21.3125C8.22244 20.3854 7.90566 19.2006 6.97857 18.6659L3.62282 16.7284C2.69669 16.1927 1.51094 16.5104 0.977162 17.4375C0.442412 18.3646 0.759193 19.5494 1.68629 20.0841L5.04107 22.0207ZM42.0938 12.0929C42.399 12.2692 42.7322 12.3535 43.0606 12.3535C43.73 12.3535 44.382 12.0057 44.7404 11.3847L46.6779 8.029C47.2127 7.10191 46.8959 5.91713 45.9688 5.38238C45.0427 4.84569 43.8569 5.16441 43.3222 6.0915L41.3847 9.44725C40.849 10.3734 41.1667 11.5582 42.0938 12.0929ZM58.023 17.4375C57.4873 16.5104 56.3034 16.1927 55.3764 16.7284L52.0206 18.6659C51.0935 19.2006 50.7767 20.3854 51.3115 21.3125C51.6709 21.9344 52.3209 22.2812 52.9913 22.2812C53.3197 22.2812 53.6529 22.1979 53.9581 22.0207L57.3139 20.0832C58.2409 19.5484 58.5587 18.3636 58.023 17.4375Z" fill="#E27D60"/>
</svg>
